PathFileType	3	(X/Y/Z)	walking_1__fused_aligned.trc
DataRate	CameraRate	NumFrames	NumMarkers	Units	OrigDataRate	OrigDataStartFrame	OrigNumFrames
100.0	100.0	14	19	mm	100.0	3053	6105
Frame#	Time	pelvis			neck			head			hip_left			hip_right			knee_left			knee_right			ankle_left			ankle_right			heel_left			heel_right			toe_left			toe_right			shoulder_left			shoulder_right			elbow_left			elbow_right			wrist_left			wrist_right			
		X1	Y1	Z1	X2	Y2	Z2	X3	Y3	Z3	X4	Y4	Z4	X5	Y5	Z5	X6	Y6	Z6	X7	Y7	Z7	X8	Y8	Z8	X9	Y9	Z9	X10	Y10	Z10	X11	Y11	Z11	X12	Y12	Z12	X13	Y13	Z13	X14	Y14	Z14	X15	Y15	Z15	X16	Y16	Z16	X17	Y17	Z17	X18	Y18	Z18	X19	Y19	Z19	
3053	30.52000	38.977683	932.913778	208.356328	12.934212	1494.686325	277.377637	18.558505	1607.920759	415.675526	116.206333	937.123204	205.610893	-38.250856	928.704370	211.101663	116.951078	512.226505	328.706046	-83.396834	505.930346	285.765201	108.994804	93.340636	328.762733	-96.530778	221.150035	-17.894753	106.172500	39.324013	301.015941	-93.948663	209.390987	-74.477672	97.826434	60.435913	524.699135	-97.641961	57.568207	69.639231	192.436884	1451.455474	218.977491	-165.791351	1421.496109	263.488853	270.961544	1168.230372	156.676196	-212.832533	1127.491230	280.464101	327.123240	911.942699	188.479966	-194.583101	922.244098	443.499246
3054	30.53000	40.225815	933.173360	207.891063	14.208628	1495.089557	276.780703	18.976408	1608.261543	414.916062	117.545182	937.456047	205.236477	-37.093456	928.890687	210.545568	117.311813	511.534752	323.825299	-82.480181	507.584504	292.020206	108.216057	93.149208	318.968352	-95.638365	222.482856	-8.413553	105.205195	39.461699	290.718439	-92.911359	210.635669	-64.698828	97.505300	58.506119	514.340488	-97.598732	59.319338	79.150397	194.043816	1451.594955	220.095511	-164.279624	1422.164748	261.206504	273.213541	1168.411107	159.621729	-211.439493	1128.177596	275.936178	328.069619	912.366510	193.614225	-195.864382	921.256488	435.678265
3055	30.54000	41.473948	933.432941	207.425798	15.483044	1495.492789	276.183770	19.394311	1608.602328	414.156598	118.884030	937.788890	204.862061	-35.936056	929.077005	209.989472	117.672547	510.842999	318.944553	-81.563527	509.238663	298.275211	107.437311	92.957781	309.173971	-94.745952	223.815677	1.067647	104.237890	39.599384	280.420936	-91.874054	211.880352	-54.919984	97.184166	56.576326	503.981842	-97.555503	61.070469	88.661563	195.650749	1451.734436	221.213531	-162.767898	1422.833387	258.924155	275.465537	1168.591843	162.567262	-210.046452	1128.863961	271.408255	329.015999	912.790320	198.748485	-197.145663	920.268878	427.857284
3056	30.55000	42.722081	933.692523	206.960533	16.757460	1495.896021	275.586836	19.812214	1608.943112	413.397133	120.222879	938.121733	204.487646	-34.778656	929.263323	209.433376	118.033281	510.151246	314.063807	-80.646874	510.892821	304.530217	106.658564	92.766353	299.379590	-93.853539	225.148498	10.548846	103.270586	39.737070	270.123433	-90.836750	213.125034	-45.141141	96.863032	54.646532	493.623195	-97.512274	62.821600	98.172729	197.257681	1451.873917	222.331551	-161.256171	1423.502026	256.641806	277.717534	1168.772579	165.512794	-208.653412	1129.550326	266.880332	329.962378	913.214131	203.882744	-198.426944	919.281269	420.036303
3057	30.56000	43.970214	933.952105	206.495268	18.031876	1496.299253	274.989903	20.230117	1609.283896	412.637669	121.561727	938.454576	204.113230	-33.621256	929.449640	208.877280	118.394016	509.459493	309.183061	-79.730221	512.546979	310.785222	105.879817	92.574926	289.585210	-92.961126	226.481319	20.030046	102.303281	39.874755	259.825930	-89.799445	214.369717	-35.362297	96.541898	52.716738	483.264549	-97.469045	64.572732	107.683895	198.864614	1452.013398	223.449571	-159.744445	1424.170665	254.359456	279.969531	1168.953315	168.458327	-207.260371	1130.236691	262.352408	330.908757	913.637941	209.017003	-199.708225	918.293659	412.215322
3058	30.57000	45.218347	934.211687	206.030003	19.306292	1496.702485	274.392970	20.648020	1609.624680	411.878204	122.900576	938.787419	203.738814	-32.463855	929.635958	208.321185	118.754750	508.767740	304.302314	-78.813568	514.201138	317.040228	105.101071	92.383498	279.790829	-92.068712	227.814140	29.511245	101.335976	40.012441	249.528428	-88.762141	215.614399	-25.583453	96.220764	50.786944	472.905902	-97.425816	66.323863	117.195061	200.471546	1452.152879	224.567592	-158.232718	1424.839304	252.077107	282.221527	1169.134051	171.403860	-205.867331	1130.923056	257.824485	331.855136	914.061751	214.151263	-200.989507	917.306049	404.394341
3059	30.58000	46.466479	934.471269	205.564738	20.580708	1497.105717	273.796036	21.065923	1609.965464	411.118740	124.239424	939.120262	203.364398	-31.306455	929.822275	207.765089	119.115484	508.075988	299.421568	-77.896914	515.855296	323.295233	104.322324	92.192071	269.996448	-91.176299	229.146961	38.992445	100.368672	40.150126	239.230925	-87.724836	216.859082	-15.804609	95.899630	48.857150	462.547256	-97.382587	68.074994	126.706227	202.078479	1452.292360	225.685612	-156.720991	1425.507943	249.794758	284.473524	1169.314787	174.349393	-204.474290	1131.609421	253.296562	332.801516	914.485562	219.285522	-202.270788	916.318440	396.573360
3060	30.59000	48.203779	934.855420	204.704903	21.814755	1497.636681	273.138021	21.235506	1610.260761	410.347410	126.066695	939.589753	202.675483	-29.659128	930.121089	206.734333	120.370729	507.608763	293.027825	-76.637458	517.537439	328.837153	105.080373	91.406072	259.241058	-90.264849	228.261655	52.449398	101.074040	39.482557	227.997382	-86.750242	215.134978	-1.575653	96.809344	46.844273	451.969476	-97.479515	70.071690	142.071666	203.642766	1452.764604	227.068373	-155.070651	1426.301888	247.327101	286.563461	1169.721366	178.727507	-202.664623	1132.382848	248.160480	332.841321	915.546423	227.455409	-202.841786	914.943709	387.066641
3061	30.60000	49.941078	935.239571	203.845069	23.048802	1498.167646	272.480005	21.405090	1610.556057	409.576080	127.893967	940.059245	201.986569	-28.011801	930.419903	205.703578	121.625974	507.141539	286.634081	-75.378002	519.219581	334.379073	105.838421	90.620074	248.485667	-89.353399	227.376348	65.906352	101.779408	38.814987	216.763838	-85.775647	213.410874	12.653303	97.719058	44.831395	441.391695	-97.576443	72.068386	157.437106	205.207054	1453.236848	228.451135	-153.420311	1427.095832	244.859444	288.653398	1170.127945	183.105621	-200.854956	1133.156276	243.024397	332.881126	916.607285	235.625296	-203.412784	913.568979	377.559921
3062	30.61000	51.678378	935.623722	202.985234	24.282849	1498.698610	271.821990	21.574673	1610.851353	408.804749	129.721238	940.528737	201.297654	-26.364474	930.718717	204.672823	122.881218	506.674315	280.240338	-74.118545	520.901723	339.920993	106.596470	89.834076	237.730277	-88.441949	226.491042	79.363305	102.484776	38.147417	205.530295	-84.801053	211.686770	26.882259	98.628772	42.818518	430.813915	-97.673371	74.065082	172.802545	206.771341	1453.709091	229.833897	-151.769971	1427.889776	242.391787	290.743336	1170.534525	187.483735	-199.045289	1133.929704	237.888315	332.920931	917.668147	243.795183	-203.983782	912.194249	368.053202
3063	30.62000	53.415677	936.007873	202.125400	25.516896	1499.229574	271.163974	21.744257	1611.146649	408.033419	131.548509	940.998228	200.608739	-24.717147	931.017531	203.642068	124.136463	506.207091	273.846594	-72.859089	522.583866	345.462913	107.354519	89.048078	226.974887	-87.530499	225.605735	92.820259	103.190144	37.479847	194.296752	-83.826459	209.962666	41.111215	99.538486	40.805641	420.236135	-97.770299	76.061778	188.167984	208.335629	1454.181335	231.216658	-150.119630	1428.683721	239.924130	292.833273	1170.941104	191.861849	-197.235622	1134.703132	232.752233	332.960736	918.729008	251.965070	-204.554780	910.819519	358.546482
3064	30.63000	55.152977	936.392025	201.265565	26.750943	1499.760538	270.505959	21.913841	1611.441945	407.262089	133.375780	941.467720	199.919824	-23.069820	931.316345	202.611312	125.391708	505.739867	267.452850	-71.599632	524.266008	351.004832	108.112567	88.262079	216.219497	-86.619049	224.720428	106.277213	103.895511	36.812277	183.063209	-82.851864	208.238561	55.340171	100.448200	38.792763	409.658354	-97.867227	78.058474	203.533424	209.899917	1454.653578	232.599420	-148.469290	1429.477665	237.456472	294.923210	1171.347683	196.239963	-195.425956	1135.476560	227.616150	333.000541	919.789870	260.134957	-205.125778	909.444789	349.039763
3065	30.64000	56.890276	936.776176	200.405731	27.984990	1500.291502	269.847943	22.083424	1611.737242	406.490759	135.203051	941.937212	199.230910	-21.422493	931.615158	201.580557	126.646953	505.272643	261.059107	-70.340176	525.948151	356.546752	108.870616	87.476081	205.464106	-85.707599	223.835122	119.734166	104.600879	36.144707	171.829665	-81.877270	206.514457	69.569127	101.357914	36.779886	399.080574	-97.964154	80.055170	218.898863	211.464204	1455.125822	233.982182	-146.818950	1430.271609	234.988815	297.013148	1171.754262	200.618077	-193.616289	1136.249987	222.480068	333.040346	920.850732	268.304844	-205.696776	908.070059	339.533044
3066	30.65000	58.627576	937.160327	199.545896	29.219037	1500.822466	269.189928	22.253008	1612.032538	405.719428	137.030322	942.406704	198.541995	-19.775166	931.913972	200.549802	127.902197	504.805418	254.665363	-69.080719	527.630293	362.088672	109.628664	86.690083	194.708716	-84.796149	222.949815	133.191120	105.306247	35.477137	160.596122	-80.902675	204.790353	83.798083	102.267628	34.767009	388.502794	-98.061082	82.051866	234.264302	213.028492	1455.598066	235.364943	-145.168610	1431.065554	232.521158	299.103085	1172.160841	204.996191	-191.806622	1137.023415	217.343986	333.080151	921.911593	276.474731	-206.267774	906.695328	330.026324
